<?xml version="1.0" encoding="utf-8"?>
<!-- Generator: Adobe Illustrator 16.0.0, SVG Export Plug-In . SVG Version: 6.00 Build 0)  -->
<!DOCTYPE svg PUBLIC "-//W3C//DTD SVG 1.1//EN" "http://www.w3.org/Graphics/SVG/1.1/DTD/svg11.dtd">
<svg version="1.1" id="Layer_1" xmlns="http://www.w3.org/2000/svg" xmlns:xlink="http://www.w3.org/1999/xlink" x="0px" y="0px"
	 width="749.54px" height="800px" viewBox="0 0 749.54 800" enable-background="new 0 0 749.54 800" xml:space="preserve">
<g>
	<path fill-rule="evenodd" clip-rule="evenodd" fill="#ED1C24" d="M262.416,96.064c0.928,0,1.856,0.143,2.5-0.358
		c0-3.711-3.927-14.922-8.138-14.922c-2.5,2.643-5.711,14.922-5.928,14.494C252.136,97.92,254.134,96.064,262.416,96.064
		L262.416,96.064L262.416,96.064z M220.865,117.839c0.928-5.64,6.067-3.783,8.854-7.495c6.353-10.709,15.419-26.631,17.776-38.767
		c0-5.213,0.429-10.71,5.284-13.354c12.851-6.496,22.559,7.497,27.058,17.922c5.926,10.566,10.566,22.561,16.136,33.555
		c0.643,0.928,1.999,2.356,2.854,3c8.354,3.355,5.068,8.994-3.427,9.923c-5.925,1.999-34.554,2.784-28.2-7.926
		c1.998-1.998,6.711-1.428,4.07-4.997c-3.285-3.285-26.917-3.569-26.917,0.928c-1.214,1.285,4.785,3.142,5.57,4.069
		C256.49,125.619,221.936,126.549,220.865,117.839L220.865,117.839L220.865,117.839z M312.035,63.079
		c1.214-7.782,14.564-5.925,20.633-5.925c13.279,0,40.625-2.928,42.838,14.921c0.855,8.069-2.356,11.852-8.783,15.85
		c-2.427,2.356,5.926,5.14,7.496,6.567c4.357,3.713,5,9.782,5.785,15.208c0.784,4.997,8.566,2.356,6.854,8.853
		c-4.998,7.353-23.203,6.568-28.63,0.142c-4.214-4.355-5.282-27.627-15.563-22.63c-1.143,2.642-1.571,12.137,0,14.707
		c2.14,3.641,8.852,2.356,6.212,8.781c-5.57,6.354-27.203,4.642-33.77,1.357c-2.357-1.213-4.356-5.14-1.714-6.997
		c5.427-2.142,5.427-3.284,6.426-8.21c0-11.065,0-22.133,0-33.342C319.033,66.935,312.821,68.935,312.035,63.079L312.035,63.079
		L312.035,63.079z M341.093,79.428c0,13.922,18.849,0.572,6.71-11.566c-8.139-3.283-6.71,6.426-6.71,11.638V79.428L341.093,79.428z
		 M392.069,102.56c0.642-6.353,4.854-7.496,8.71-2.926c5.925,7.425,10.139,10.709,19.633,10.709c7.782,0,9.996-5.641,0.929-8.069
		c-9.14-2.213-23.775-7.21-26.274-17.419c-2.355-6.425,0.143-16.065,5.142-20.276c6.641-7.568,20.489-9.495,29.843-6.998
		c5.281,1.429,4.854,2.213,9.923-0.286c4.57-1.427,10.639,10.709,10.639,14.281c1.499,6.995-6.282,9.708-10.639,5.497
		c-5.069-5.427-10.851-8.423-18.349-6.57c-4.14,1.999-4.14,6.998,0.929,8.425c11.064,4.07,27.415,3.713,28.843,18.991
		c1.714,16.92-13.563,25.917-28.629,25.917c-7.496,0-24.558-2.427-27.701-8.709C393.211,111.272,392.425,107.059,392.069,102.56
		L392.069,102.56L392.069,102.56z M463.819,77.357c0-5.139,0.429-8.995-5.426-10.708c-2.64-1.428-3.141-3.712-1.143-6.426
		c4.354-3.213,38.268-7.139,36.127,4.069c0,4.07-7.639,2.356-7.639,8.853c0,10.638-2.143,23.633,2.643,32.985
		c6.21,6.211,23.06,5.282,26.127-4.641c2.786-9.639,0.501-21.775,0.501-31.915c0-1.713-6.425-2.356-7.067-4.996
		c-2.428-9.924,24.418-10.209,28.199-3.854c2.929,4.996-4.21,6.567-6.424,8.851c0,0.786-0.715,2.356-0.856,3.144
		c0,10.994,2.428,33.554-6.57,42.479c-15.063,14.922-53.973,10.851-58.185-13.136C464.106,94.137,463.819,85.425,463.819,77.357
		L463.819,77.357L463.819,77.357z M541.14,102.56c0-6.566,5.141-7.282,8.711-2.926c5.141,6.497,9.495,10.709,17.992,10.709
		c5.64,0,13.993-3.285,4.212-7.64c-12.779-3.214-30.629-9.138-28.629-25.63c1.854-17.42,25.344-25.346,39.838-18.063
		c1.426,0.785,3.283,0,4.781-1.071c5.283-3.927,11.211,10.065,11.711,13.638c1.213,6.281-5.427,9.635-10.14,6.066
		c-5.425-5.568-10.995-8.993-18.92-7.139c-4.21,2.069-4.21,6.854,0.859,8.425c9.995,3.569,25.7,3.713,28.485,16.634
		c6.067,27.846-33.413,33.413-50.976,23.633C542.996,117.197,541.14,107.844,541.14,102.56L541.14,102.56L541.14,102.56z
		 M145.258,73.288c0.357-5.996,4.711-15.064,10.71-16.92c3.284-1.284,6.568,0.786,9.995,0.786c10.137,0,22.418,1.357,32.199-0.5
		c3.425-0.785,5.925-1.213,9.137,0.999c4.713,4.142,11.066,13.994,6.569,20.206c-5.284,3.855-9.137,1.214-12.567-3.142
		c-1.926-2.785-7.495-10.137-9.706-3.139c0,10.921-0.145,22.702-0.145,33.77c0.501,6.21,0.786,7.137,6.068,9.065
		c6.427,6.497-8.494,8.854-12.922,9.281c-5.068,0.357-24.703,0.214-22.702-8.211c2.07-2.926,5.354-1.57,6.996-6.211
		c1.141-7.21,0.501-15.42,0.501-22.917c0-3.713,1.997-22.989-6.071-16.42c-4.067,4.282-8.853,13.635-15.705,8.353
		C146.043,77.215,145.4,74.716,145.258,73.288L145.258,73.288L145.258,73.288z"/>
	<path fill-rule="evenodd" clip-rule="evenodd" fill="#FFF200" d="M633.168,415.482c-13.994,9.138-27.916,17.42-41.979,25.059
		c-151.786,71.968-306.997,64.685-465.28-24.987c-3.783-2.355-7.565-4.854-11.352-7.354
		c9.212-135.006,121.515-241.883,259.02-241.883C513.581,166.316,627.669,277.049,633.168,415.482L633.168,415.482L633.168,415.482z
		"/>
	<path fill-rule="evenodd" clip-rule="evenodd" fill="#FDB913" d="M376.149,177.096c83.458,0,151.571,67.896,151.571,151.213
		c0,83.033-68.113,150.929-151.571,150.929c-83.461,0-151.5-67.896-151.5-150.929C224.648,244.992,292.688,177.096,376.149,177.096
		L376.149,177.096z"/>
	<path fill-rule="evenodd" clip-rule="evenodd" fill="#0DB14B" d="M114.557,408.416c3.786,2.425,7.569,4.782,11.281,7.138
		c158.28,89.672,313.564,96.955,465.419,24.987c13.994-7.423,27.988-15.563,41.981-24.415c0.073,3.283,0.214,6.567,0.214,9.923
		c0,25.416-3.712,49.975-10.494,73.253c-164.208,28.342-331.055,27.627-499.048-1.856c-6.497-22.705-9.924-46.623-9.924-71.396
		C113.987,420.124,114.201,414.269,114.557,408.416L114.557,408.416L114.557,408.416z"/>
	<path fill-rule="evenodd" clip-rule="evenodd" fill="#ED1C24" d="M376.219,221.862c57.616,0,104.594,46.833,104.594,104.165
		c0,57.4-46.978,103.948-104.594,103.948c-57.687,0-104.664-46.548-104.664-103.948
		C271.555,268.695,318.532,221.862,376.219,221.862L376.219,221.862L376.219,221.862z"/>
	<path fill-rule="evenodd" clip-rule="evenodd" fill="#FFFFFF" d="M396.923,279.619c8.781,0,15.923,7.068,15.923,15.921
		c0,8.64-7.142,15.851-15.923,15.851c-8.78,0-15.922-7.211-15.922-15.851C381.001,286.688,388.143,279.619,396.923,279.619
		L396.923,279.619L396.923,279.619z"/>
	<path fill-rule="evenodd" clip-rule="evenodd" fill="#FFFFFF" d="M360.298,242.566c-2.142,1.284-8.067,8.922-8.782,9.637
		c22.134,0,25.131,20.918,24.846,34.77c15.563-28.059,7.927-27.63,2.142-32.77c16.282,4.711,32.199-3.713,32.199-15.78
		C396.067,242.566,377.646,246.136,360.298,242.566L360.298,242.566L360.298,242.566z"/>
	<path fill-rule="evenodd" clip-rule="evenodd" fill="#FFFFFF" d="M317.034,277.764c8.78,0,15.991,7.138,15.991,15.918
		c0,8.641-7.21,15.923-15.991,15.923c-8.712,0-15.922-7.282-15.922-15.923C301.112,284.902,308.322,277.764,317.034,277.764
		L317.034,277.764L317.034,277.764z"/>
	<path fill-rule="evenodd" clip-rule="evenodd" fill="#FFFFFF" d="M376.646,384.499c8.782,0,15.852,7.139,15.852,15.634
		c0,8.853-7.069,15.922-15.852,15.922c-8.851,0-15.92-7.069-15.92-15.922C360.726,391.638,367.796,384.499,376.646,384.499
		L376.646,384.499L376.646,384.499z"/>
	<path fill-rule="evenodd" clip-rule="evenodd" fill="#FFFFFF" d="M397.78,352.013c8.782,0,15.922,7.138,15.922,15.778
		c0,8.782-7.14,15.779-15.922,15.779c-8.781,0-15.921-6.997-15.921-15.779C381.859,359.151,388.999,352.013,397.78,352.013
		L397.78,352.013L397.78,352.013z"/>
	<path fill-rule="evenodd" clip-rule="evenodd" fill="#FFFFFF" d="M356.299,351.44c8.854,0,16.066,7.14,16.066,15.922
		c0,8.782-7.212,15.778-16.066,15.778c-8.638,0-15.848-6.996-15.848-15.778C340.451,358.58,347.661,351.44,356.299,351.44
		L356.299,351.44L356.299,351.44z"/>
	<path fill-rule="evenodd" clip-rule="evenodd" fill="#FFFFFF" d="M335.738,315.958c8.639,0,15.923,7.069,15.923,15.922
		c0,8.78-7.284,15.848-15.923,15.848c-8.782,0-15.919-7.067-15.919-15.848C319.819,323.028,326.956,315.958,335.738,315.958
		L335.738,315.958L335.738,315.958z"/>
	<path fill-rule="evenodd" clip-rule="evenodd" fill="#FFFFFF" d="M413.986,317.244c8.781,0,15.85,7.068,15.85,15.92
		c0,8.782-7.068,15.851-15.85,15.851c-8.852,0-15.922-7.068-15.922-15.851C398.064,324.312,405.135,317.244,413.986,317.244
		L413.986,317.244L413.986,317.244z"/>
	<path fill-rule="evenodd" clip-rule="evenodd" fill="#FFFFFF" d="M435.406,279.048c8.638,0,15.92,7.14,15.92,15.779
		c0,8.78-7.282,15.92-15.92,15.92c-8.782,0-15.922-7.14-15.922-15.92C419.484,286.115,426.624,279.048,435.406,279.048
		L435.406,279.048L435.406,279.048z"/>
	<path fill-rule="evenodd" clip-rule="evenodd" fill="#FFFFFF" d="M356.585,279.333c8.853,0,15.922,7.07,15.922,15.779
		c0,8.782-7.069,15.993-15.922,15.993c-8.782,0-15.849-7.211-15.849-15.993C340.736,286.402,347.803,279.333,356.585,279.333
		L356.585,279.333L356.585,279.333z"/>
	<path fill-rule="evenodd" clip-rule="evenodd" fill="#FFFFFF" d="M375.646,317.244c8.783,0,15.851,7.068,15.851,15.92
		c0,8.782-7.067,15.851-15.851,15.851c-8.851,0-15.919-7.068-15.919-15.851C359.727,324.312,366.795,317.244,375.646,317.244
		L375.646,317.244L375.646,317.244z"/>
	<path fill-rule="evenodd" clip-rule="evenodd" d="M586.403,52.941c10.567-4.498,19.277,13.208,18.276,22.063
		c0.217,1.927-3.711,8.566-6.353,8.566c15.136,15.065,4.856,38.125-13.493,43.265c-15.278,4.355-44.692,2.283-48.049-17.419
		c-1.714-5.782-1.286-14.493,5.141-17.135c-13.707-25.202,13.635-46.478,37.125-39.98c1.285,0.356,4.498,0.928,5.639,1.713
		C584.977,53.727,586.189,52.941,586.403,52.941L586.403,52.941L586.403,52.941z M149.042,275.979l-0.645-77.893
		c0.645-11.351-8.709-12.279-9.066-1.427c0.357,21.775-0.569,72.323,0.5,93.956C143.902,283.903,144.972,281.618,149.042,275.979
		L149.042,275.979L149.042,275.979z M175.172,242.351l-0.356-45.407c0.642-11.351-8.709-12.279-9.14-1.498
		c0.43,21.773,0.144,33.84,0.929,55.972C170.819,246.92,170.458,247.063,175.172,242.351L175.172,242.351L175.172,242.351z
		 M116.628,179.237l-0.428,6.497c5.782-3.425,11.851,2.714,12.137,10.282c0,15.85,0.43,96.169,1.215,112.803
		c3.712-5.925,2.069-4.07,5.923-10.637l-0.926-103.236c-0.143-12.779,17.92-13.351,18.492,0.14c0,15.853,0,58.189,0.143,74.396
		c4.854-5.283,2.998-6.282,8.71-11.351l-0.929-64.398c-0.143-12.78,17.921-13.279,18.491,0.143c0,15.849,0.215,27.487,0.357,43.407
		c4.64-4.569,4.07-3.927,9.139-7.64l-1.641-38.267c-3.928-3.57-5.642-6.497-6.999-12.138H116.628L116.628,179.237z M116.842,162.246
		l-0.213,10.781l63.611,0.787c0.359-5.141,1.93-8.854,3.571-12.496C151.183,163.246,153.183,165.888,116.842,162.246
		L116.842,162.246L116.842,162.246z M116.842,138.687l-0.213,16.277c18.847,4.212,37.34,4.212,69.824,1.428
		c3.784-5.283,13.064-8.139,22.417-8.139c14.922,0,18.563,15.136,18.563,16.991c0.928,9.141-5.355,17.565-7.854,19.562
		c-13.992,10.783-29.343-3.854-23.774-17.348c2.999-6.711,12.637-6.569,14.778-6.569c5.641,0,8.069,5.928,9.995,8.211
		c2.286-5.998-5.354-15.208-18.205-15.064c-3.284,0-14.35,5.783-16.492,20.42c0.143,15.349,15.707,24.059,27.844,21.702
		c14.136-1.499,23.133-13.778,23.917-25.201c1.714-15.351-10.566-33.556-35.627-33.056L116.842,138.687L116.842,138.687z
		 M635.524,137.688l-0.288,19.134c-36.123,3.282-38.408,2.069-70.965-0.786c-3.854-5.286-12.922-8.211-22.418-8.211
		c-17.706,0-18.633,15.208-18.633,17.064c-0.93,9.066,5.424,17.492,7.925,19.49c13.992,10.852,29.272-3.855,23.773-17.278
		c-2.284-6.353-9.281-6.567-14.777-6.567c-5.07,0-7.781,3.783-10.067,8.14c-2.214-5.927,5.425-15.137,18.206-15.066
		c3.282,0,14.421,5.855,16.492,20.492c-0.145,15.277-15.707,23.987-27.845,21.632c-14.136-1.428-23.061-13.709-23.845-25.202
		c-1.714-15.279,10.564-33.556,35.626-32.984L635.524,137.688L635.524,137.688z M557.562,225.146
		c-48.477-44.836-111.66-70.968-182.841-70.968c-70.682,0-133.507,26.346-181.414,70.181l0.212-27.844
		c10.998,7.784,26.276,4.213,32.774,1.215c8.066-4.141,18.204-14.138,16.846-33.699c-0.927-15.563-16.846-30.844-31.484-30.984
		l-19.133-0.927c5.782-1.714,10.638-2.787,13.565-6.071c6.068-7.782,3.285-16.063-4.211-20.988V88.425
		c4.497,1.855,10.78,1.855,14.921-0.357c20.846-10.425,1.715-46.764-19.134-41.838c-9.781,2.07-21.417,0.785-31.555,0.785
		c-13.995-2.784-22.347,2.356-28.773,15.422c-3.712,9.637-2.928,17.063,4.498,24.274c4.997,3.213,11.993,4.211,17.42,1.57v15.993
		v0.428c-8.069,4.355-10.425,14.493-4.355,21.49c3.284,3.282,8.567,5.569,14.208,6.354l-52.262-0.572L116.2,16.243h520.251
		l-0.644,116.019l-53.829,0.143c10.924-1.999,21.846-8.497,26.13-18.921c3.927-7.854,3.642-22.275-2-29.271
		c10.425-10.424-2.355-37.197-16.635-37.197c-2.213,0-4.64,1.428-6.567,0.928c-12.708-3.571-27.773-1.499-38.34,6.998
		c-9.353-10.854-34.697-12.282-43.905-0.715c-8.999-12.493-41.481-7.21-49.265-2.498c-3.14-4.712-11.566-5.498-16.348-3.57
		c-5.641-0.786-11.353-2.999-17.708-1.713c-14.637,1.499-26.344,8.496-31.912,22.561v-0.071
		c-6.853-24.347-33.413-22.206-53.333-22.206c-6.851,0.43-13.849-0.355-20.204,2.215c-11.708,4.782-13.849,21.417-2.069,27.201
		v27.844c-0.644,0.786-1.571,0.927-2.286,1.358c-0.785-0.645-2.07-1.215-2.999-1.502c-9.781-21.489-26.63-72.535-58.187-53.547
		c-8.567,5.785-7.139,13.068-9.494,21.92c-4.214,10.566-9.14,21.203-14.922,31.128c-2.926,1.356-6.711,3.069-8.496,5.783
		c-15.421,24.844,33.557,32.914,45.193,16.42c9.708,12.138,37.838,9.996,49.474,3.142c12.138,6.711,34.2,7.639,46.335,0
		c13.282,6.711,26.133,6.997,38.769-1.429c19.562,9.71,52.69,10.567,64.683-11.351l0.287,0.144
		c14.635,23.06,60.541,24.486,75.604,0.785c4.214,8.422,13.424,13.849,23.489,15.421L537.5,132.12
		c-12.709,0.285-29.486,16.206-29.2,31.555c-1.286,19.49,8.065,29.558,16.135,33.627c6.424,3.071,21.775,6.639,32.696-1.144
		L557.562,225.146L557.562,225.146z M562.844,230.07c4.711,4.213,4.57,4.57,8.712,9.354c-0.145-15.563-0.285-30.128-0.285-45.907
		c0.498-13.493,18.561-12.994,18.489-0.144l-0.714,65.328c4.355,5.781,4.64,6.068,8.712,11.992
		c0.142-15.563-0.073-60.185-0.073-76.034c0.499-13.422,18.562-12.921,18.42-0.142l-0.644,105.734
		c4.07,7.282,3.998,7.282,7.282,14.637c-0.144-15.709-0.429-103.452-0.429-119.3c-0.498-9.995,9.353-13.708,12.708-8.71l0.785-8.068
		H570.34c-1.355,5.711-3.283,10.354-7.282,13.922l-0.5,17.777L562.844,230.07L562.844,230.07z M584.834,254.488
		c0.783-21.274-0.215-37.625,0.143-59.403c-0.287-9.921-9.067-9.78-9.067-1.068v48.69L584.834,254.488L584.834,254.488
		L584.834,254.488z M601.612,276.621c4.496,6.354,6.066,9.354,9.637,15.992c0.501-21.418-0.284-74.607,0.144-96.383
		c-0.572-9.85-9.925-8.923-9.139,1.501L601.612,276.621L601.612,276.621z M626.528,322.956l0.429-124.298
		c-0.643-11.352,8.424-10.994,8.851,0l-1.496,146.359C632.097,337.091,629.955,330.881,626.528,322.956L626.528,322.956
		L626.528,322.956z M635.167,161.39l0.069,12.28l-64.754-0.214c-0.429-5.141-2.283-9.637-3.709-12.922
		C599.469,162.889,599.256,164.602,635.167,161.39L635.167,161.39L635.167,161.39z M116.2,191.519
		c2.927-3.713,7.926-0.928,7.497,7.495l-0.072,122.373c-4.356,8.995-4.784,12.778-7.709,22.13L116.2,191.519L116.2,191.519z
		 M373.577,685.782c143.575,0,259.876-116.303,259.876-259.733c0-143.36-116.301-259.733-259.876-259.733
		c-143.502,0-259.59,116.373-259.59,259.733C113.987,569.479,230.075,685.782,373.577,685.782L373.577,685.782L373.577,685.782z
		 M106.06,4.537L647.16,4.394l-1.5,437.719c-8.28,141.86-126.011,254.235-270.014,254.235
		c-149.354,0-270.371-121.157-270.371-270.586L106.06,4.537L106.06,4.537z M535.358,176.097c1.355,3.428,5.781,5.642,9.208,4.356
		c3.358-1.5,5.213-5.997,3.854-9.281c-1.426-3.426-5.639-5.64-9.065-4.354C535.999,168.314,533.93,172.742,535.358,176.097
		L535.358,176.097L535.358,176.097z M215.297,176.455c-1.286,3.426-5.783,5.712-9.21,4.355c-3.285-1.429-5.141-5.927-3.856-9.211
		c1.5-3.428,5.713-5.711,9.138-4.355C214.653,168.673,216.796,173.171,215.297,176.455L215.297,176.455L215.297,176.455z
		 M307.68,112.841c2.5-2.497,6.639-4.639,6.997-8.138V73.288c-2.355-3.354-6.281-2.426-7.639-8.495
		c-0.787-9.209,8.352-12.781,15.849-12.781c19.135,0,57.831-5.567,57.831,23.205c0,5.068-2.429,9.923-5.857,13.349
		c7.284,5,8.999,11.353,10.21,19.779c1.001,0,1.786,0.713,2.5,0.927c-1.571-5.14-0.785-14.992,5.354-16.992
		c-6.711-10.066-4.213-24.559,4.783-32.626c7.782-6.854,20.206-9.355,30.342-7.782c1.571,0.141,6.213,1.355,7.428,2.141
		c5.496-4,14.207,0.357,15.919,5.782c5.569-10.137,29.487-10.28,40.911-5.569c8.853,5.569,8.637,14.28-1.143,18.276
		c-1.5,1.572-0.929,23.061,0.783,26.917c1.856,8.783,16.494,6.21,18.063-0.785c0.784-5.711,1.43-20.991,0.286-26.416
		c-3.855-1.57-7.638-3.568-7.638-8.425c0-15.208,27.557-14.708,35.982-7.925c5.854,7.353,3.069,12.28-4.214,16.492
		c-0.783,0.358-0.284,4.498-0.284,5.642c0,17.705,1.713,37.196-15.921,46.049c-23.49,10.067-59.401,4.784-59.401-27.414
		c0-6.212,1.071-18.349-0.143-23.633c-0.499-1.214-1.714-1.426-2.785-1.999c0,6.353-1.428,8.996-6.427,12.565
		c14.994,15.065,4.857,38.554-13.85,43.122c-12.708,3.714-34.055,2.5-43.834-7.14c-6.069,13.636-29.203,10.425-38.053,1.642
		c-6.282,11.423-39.412,9.71-45.765-0.142c-6.854,10.566-42.123,11.495-46.335-1.5c-0.356-2.068-0.285-5.14,0.785-6.995
		c-2.355,0-4.997,0.284-7.351,0.284c4.854,13.494-11.639,16.634-21.421,15.85c-9.065,0-20.276-3.284-16.991-14.92
		c2.641-4.641,7.497-4.355,9.781-8.068c4.569-6.425,8.139-15.777,11.566-22.775c1.999-4.783,4.212-9.566,4.641-14.564
		c0-14.35,13.994-20.563,26.13-14.636c14.493,10.138,22.061,34.056,29.202,48.405C300.327,108.487,304.682,108.202,307.68,112.841
		L307.68,112.841L307.68,112.841z M384.216,83.569l-2.071,4.07c1.214,1.212,2.071,2.925,3,3.997l1.069-1.072
		C385.429,88.71,384.646,85.641,384.216,83.569L384.216,83.569L384.216,83.569z M199.089,125.263c-9.21,5-38.91,6.355-42.337-6.352
		c-1.071-9.639,7.64-7.211,7.64-14.352V76.716c-4.642,5.782-10.067,10.424-17.993,6.997c-13.136-7.283,0.141-26.916,0.285-26.559
		c6.069-6.856,10.709-6.711,19.135-5.142c11.637,0,23.204,0.929,34.555-1.212c15.636-1.286,29.486,27.771,12.064,33.555
		c-6.781,1.713-12.564-2.285-15.848-7.282c0,9.638-0.571,20.346,0.144,30.127c0.212,2.07,1.928,2.07,3.425,2.999
		C206.728,114.84,204.73,121.41,199.089,125.263L199.089,125.263L199.089,125.263z M500.944,72.218
		c-1.07,1.429-3.425,2.999-5.067,3.786c0,5.994-0.143,13.634,0.57,19.061c0.93,4.712,8.925,6.425,8.925-0.714
		c0.428-5.141,0-13.566,0-18.707C503.801,74.716,502.229,73.647,500.944,72.218L500.944,72.218L500.944,72.218z"/>
	<path fill-rule="evenodd" clip-rule="evenodd" d="M73.578,462.389l-62.399,12.139l-2.784-14.708l62.327-12.138l-4.497-23.347
		l11.638-2.284l11.923,61.4l-11.637,2.213L73.578,462.389L73.578,462.389z M35.812,510.651l-16.922,0.215l-4.782-14.778l79.96,1.926
		l5.142,15.923l-63.827,47.69l-4.856-14.85l13.851-9.781L35.812,510.651L35.812,510.651z M47.233,510.509l6.498,19.992
		l28.915-20.491L47.233,510.509L47.233,510.509z M73.934,573.837l-26.701,14.776l-7.21-13.065l65.967-36.552l14.995,27.129
		c2.214,3.927,3.713,6.925,4.497,8.854c0.786,1.926,1.358,3.925,1.715,6.068c0.712,4.569-0.215,8.922-2.856,12.922
		c-1.856,2.927-4.427,5.283-7.568,6.998c-2.785,1.57-5.641,2.354-8.64,2.496c-2.997,0.145-5.71-0.498-8.138-1.856
		c-2.426-1.283-5.283-3.64-8.639-6.996c2.641,6.284,2.57,11.496-0.286,15.565c-1.07,1.643-3.213,3.5-6.425,5.639
		c-1.215,0.927-3.355,2.286-6.355,4.142c-3.568,2.213-5.783,3.854-6.783,4.928c-0.713,0.569-1.57,1.57-2.57,2.927l-6.854-12.424
		c0.573-0.855,0.93-1.427,1.144-1.643c0.785-1.07,2.855-2.57,6.209-4.64c5.285-3.213,8.923-6.066,10.923-8.567
		c2.643-3.426,3.214-7.284,1.501-11.709c-0.429-1.286-1.142-2.855-2.143-4.711L73.934,573.837L73.934,573.837z M83.646,568.41
		l7.565,13.636c1.645,2.999,3.429,5.141,5.355,6.567c3.642,2.643,7.425,2.856,11.353,0.643c2.426-1.285,4.067-3.141,4.997-5.426
		c1-2.426,0.786-5.283-0.642-8.494c-0.57-1.358-1.215-2.642-1.929-3.928l-7.496-13.636L83.646,568.41L83.646,568.41z
		 M158.964,652.298l-9.494-10.21c1.926-2.569,2.926-4.926,2.999-7.21c0.214-3.855-1.644-7.782-5.498-11.923
		c-2.855-3.07-5.784-4.998-8.637-5.712c-3-0.785-5.57-0.142-7.641,1.715c-2.568,2.427-3.283,5.281-2.141,8.638
		c0.642,1.785,3.141,6.639,7.566,14.349c3.57,6.214,5.713,10.927,6.497,14.065c1.072,3.999,0.929,7.783-0.356,11.423
		c-1.072,3.072-2.854,5.713-5.282,7.998c-2.428,2.212-5.213,3.782-8.425,4.781c-3.213,0.93-6.426,1.143-9.639,0.573
		c-7.208-1.214-13.922-5.212-20.133-11.853c-3.641-3.927-6.356-7.996-8.21-12.208c-1.786-4.284-2.571-8.352-2.285-12.352
		c0.43-5.71,2.784-10.854,7.139-15.422l9.852,10.494c-2.497,2.716-3.924,5.283-4.066,7.856c-0.359,4.211,1.641,8.637,5.997,13.276
		c2.784,3.001,5.711,5.142,8.78,6.428c3.785,1.57,7.069,1.07,9.781-1.428c1.856-1.785,2.642-3.786,2.358-6.141
		c-0.359-2.5-2.786-7.78-7.141-15.85c-3.642-6.567-5.855-11.137-6.71-13.78c-2.785-7.996-1.072-14.849,5.067-20.561
		c4.999-4.64,10.782-6.426,17.349-5.426c6.712,1.071,12.993,4.714,18.85,10.994c7.139,7.64,10.423,15.206,9.852,22.774
		C165.034,642.019,162.892,646.873,158.964,652.298L158.964,652.298L158.964,652.298z M211.654,666.005l12.209,8.568l-24.632,35.128
		c-2.999,4.282-5.209,7.279-6.781,9.066c-2.642,3.069-5.355,5.281-8.139,6.709c-2.788,1.357-5.999,2.07-9.57,2.142
		c-6.066,0-12.636-2.426-19.702-7.353c-7.069-4.925-11.639-10.281-13.638-15.993c-1.714-4.854-1.784-9.566-0.359-14.063
		c1.073-3.214,3.929-8.282,8.784-15.137l24.634-35.125l12.206,8.567l-23.916,34.126c-4.64,6.64-7.211,11.352-7.64,14.136
		c-0.5,2.569,0.071,5.214,1.713,7.854c1.357,2.069,3.141,3.928,5.355,5.425c3.14,2.286,6.424,3.357,9.78,3.499
		c2.57,0,5-0.926,7.141-2.784c1.928-1.571,4.783-5.139,8.637-10.637L211.654,666.005L211.654,666.005z M269.913,723.123
		l-12.708-5.642c0.786-3.142,0.715-5.712-0.071-7.854c-1.285-3.568-4.57-6.497-9.709-8.853c-3.856-1.711-7.283-2.285-10.212-1.855
		c-3.067,0.499-5.14,1.998-6.281,4.568c-1.427,3.285-0.999,6.214,1.358,8.783c1.284,1.429,5.496,4.854,12.565,10.28
		c5.712,4.355,9.566,7.781,11.494,10.353c2.5,3.284,3.855,6.853,4.07,10.638c0.214,3.285-0.356,6.425-1.713,9.495
		c-1.356,2.998-3.283,5.567-5.855,7.71c-2.569,2.143-5.497,3.569-8.637,4.283c-7.141,1.643-14.852,0.645-23.204-3.068
		c-4.854-2.143-8.995-4.855-12.28-8.068c-3.354-3.213-5.639-6.64-6.926-10.422c-1.855-5.428-1.642-11.068,0.572-16.993l13.138,5.854
		c-1.286,3.428-1.569,6.354-0.714,8.781c1.356,3.997,4.926,7.284,10.708,9.853c3.712,1.712,7.281,2.499,10.639,2.499
		c4.069,0,6.853-1.714,8.352-5.142c1.072-2.356,1.001-4.497-0.214-6.568c-1.285-2.14-5.568-6.068-12.779-11.779
		c-5.854-4.641-9.709-7.996-11.494-10.066c-5.64-6.283-6.783-13.28-3.355-20.92c2.784-6.211,7.424-10.137,13.851-11.779
		c6.567-1.642,13.778-0.714,21.632,2.712c9.567,4.285,15.563,9.998,17.992,17.207C271.555,711.271,271.412,716.626,269.913,723.123
		L269.913,723.123L269.913,723.123z M287.903,786.164l13.065-74.322l33.912,5.998c6.641,1.141,11.78,3.426,15.279,6.78
		c2.356,2.142,3.927,4.927,4.783,8.212c0.644,2.498,0.787,5.14,0.286,7.852c-1.427,7.927-6.712,12.494-15.922,13.495
		c3.786,1.498,6.64,3.567,8.783,6.14c3.498,4.354,4.785,9.424,3.785,15.136c-0.929,5.284-3.358,9.568-7.14,12.994
		c-3.641,3.212-8.14,4.782-13.421,4.782c-2.214,0-4.998-0.356-8.426-0.928L287.903,786.164L287.903,786.164z M310.394,744.539
		l13.707,2.429c4.212,0.714,7.427,0.855,9.568,0.285c4.068-1,6.495-3.427,7.138-7.281c0.715-3.927-0.855-6.997-4.71-9.069
		c-1.642-0.784-4.427-1.57-8.354-2.283l-14.137-2.499L310.394,744.539L310.394,744.539z M304.682,777.025l14.351,2.498
		c4.712,0.858,8.28,1.071,10.638,0.571c2.143-0.5,3.926-1.571,5.21-3.143c1.284-1.498,2.143-3.213,2.429-5.14
		c0.427-2.356,0.214-4.499-0.785-6.425c-0.859-2.001-2.429-3.571-4.499-4.784c-1.785-0.928-4.783-1.784-8.996-2.57l-14.566-2.57
		L304.682,777.025L304.682,777.025z M364.226,796.801l-3.928-75.392l55.546-2.857l0.57,11.852l-40.552,2.143l0.928,17.776
		l35.554-1.925l0.571,11.921l-35.554,1.854l1.142,21.921l41.409-2.142l0.644,11.85L364.226,796.801L364.226,796.801z
		 M449.184,776.239l36.981-7.854l2.499,11.638l-51.616,10.995l-15.707-73.821l14.635-3.069L449.184,776.239L449.184,776.239z
		 M501.802,775.953l-29.415-69.465l51.12-21.704l4.64,10.924l-37.41,15.918l6.925,16.35l32.769-13.921l4.642,10.994l-32.77,13.851
		l8.639,20.275l38.125-16.206l4.64,10.924L501.802,775.953L501.802,775.953z M572.767,741.541l-44.334-61.042l20.845-15.135
		c4.213-3.07,7.428-5.141,9.711-6.354c2.284-1.214,4.856-2.073,7.64-2.573c5.997-1.142,11.923-0.428,17.849,2.217
		c6.927,3.138,13.065,8.279,18.35,15.563c2.997,4.14,5.354,8.567,6.925,13.136c1.57,4.569,2.284,8.854,2.071,12.923
		c-0.287,7.71-4.144,14.708-11.495,20.918c-1.357,1.214-3.214,2.643-5.712,4.427L572.767,741.541L572.767,741.541z M577.838,723.192
		l9.637-6.995c2.998-2.214,5.213-4.141,6.498-5.712c1.355-1.57,2.354-3.5,3.069-5.784c1.928-6.066,0-13.065-5.854-21.063
		c-4.355-5.996-8.926-10.137-13.78-12.278c-5.567-2.498-11.207-2.213-16.99,0.929c-1.287,0.715-3.214,2-5.927,3.997l-6.997,5.068
		L577.838,723.192L577.838,723.192z M572.197,619.314l10.209-9.211l7.996,8.925l-10.209,9.21L572.197,619.314L572.197,619.314z
		 M585.617,635.021l11.067-9.995l50.476,56.043l-11.064,9.998L585.617,635.021L585.617,635.021z M602.539,618.815l9.354-12.995
		l35.626,5.926l-16.563-32.127l9.353-12.922l23.273,47.477l23.274,16.92l-8.781,12.065l-23.272-16.92L602.539,618.815
		L602.539,618.815z M708.133,584.973l-68.966-30.628l22.631-50.833l10.852,4.856l-16.563,37.122l16.277,7.284l14.492-32.556
		l10.854,4.855l-14.493,32.482l20.062,8.996l16.92-37.911l10.854,4.856L708.133,584.973L708.133,584.973z M691.711,444.041
		l-2.427,13.707c-3.142-0.07-5.711,0.643-7.568,1.856c-3.142,2.214-5.212,6.069-6.21,11.639c-0.716,4.14-0.5,7.566,0.642,10.279
		c1.213,2.927,3.212,4.568,5.997,5.068c3.498,0.573,6.211-0.569,8.139-3.426c1.07-1.643,3.427-6.568,6.927-14.779
		c2.854-6.496,5.282-11.065,7.282-13.638c2.64-3.212,5.711-5.354,9.352-6.496c3.141-0.998,6.354-1.213,9.638-0.643
		c3.213,0.572,6.139,1.857,8.854,3.855c2.712,2,4.783,4.427,6.282,7.354c3.284,6.496,4.213,14.208,2.643,23.204
		c-0.928,5.284-2.569,9.925-4.854,13.922c-2.286,3.999-5.143,7.065-8.426,9.21c-4.855,3.141-10.353,4.283-16.636,3.57l2.5-14.137
		c3.641,0.428,6.495-0.071,8.639-1.428c3.569-2.284,5.925-6.569,7.068-12.851c0.714-3.999,0.642-7.64-0.143-10.852
		c-1.071-3.998-3.428-6.285-7.069-6.925c-2.569-0.431-4.641,0.143-6.281,1.784c-1.858,1.784-4.57,6.854-8.426,15.278
		c-3.07,6.782-5.354,11.351-6.927,13.637c-4.71,6.996-11.278,9.707-19.561,8.281c-6.711-1.215-11.565-4.714-14.705-10.567
		c-3.213-5.998-4.072-13.207-2.572-21.633c1.785-10.351,5.853-17.562,12.28-21.632C679.859,445.325,685,444.111,691.711,444.041
		L691.711,444.041L691.711,444.041z M652.659,428.834l0.927-13.78l11.996,0.858l-0.93,13.706L652.659,428.834L652.659,428.834z
		 M673.221,430.761l1.07-14.849l75.249,5.282l-1.068,14.85L673.221,430.761L673.221,430.761z"/>
	<path fill-rule="evenodd" clip-rule="evenodd" fill="#00B9F2" d="M128.125,510.866c8.852,2.283,17.49,4.712,25.342,7.14
		c42.481,35.982,75.18,94.24,105.879,141.288C198.162,629.31,150.54,575.977,128.125,510.866L128.125,510.866L128.125,510.866z
		 M173.672,515.648c20.706,2.855,41.269,5.283,61.685,7.282c52.69,44.266,78.534,108.163,118.517,162.065
		c-24.702-1.854-48.406-7.139-70.681-15.421C246.567,618.742,221.651,560.344,173.672,515.648L173.672,515.648L173.672,515.648z
		 M259.632,525.146c19.634,1.642,39.195,2.854,58.616,3.712c47.619,42.336,73.108,100.381,109.233,151.285
		c-17.136,3.641-34.912,5.569-53.117,5.64C340.878,638.305,305.181,575.476,259.632,525.146L259.632,525.146L259.632,525.146z
		 M340.451,529.715c18.563,0.571,37.052,0.786,55.472,0.64c40.626,36.127,64.613,83.961,93.171,128.369
		c-14.707,7.354-30.201,13.278-46.335,17.704C407.205,628.524,383.003,574.979,340.451,529.715L340.451,529.715L340.451,529.715z
		 M417.058,530.072c17.419-0.357,34.697-1.071,51.833-2.072c30.27,23.987,53.83,59.829,74.963,94.24
		c-12.78,11.139-26.771,20.992-41.624,29.488C475.53,610.532,453.397,567.054,417.058,530.072L417.058,530.072L417.058,530.072z
		 M489.879,526.644l46.62-4.141c18.85,14.78,34.127,34.056,49.477,53.19c-9.21,12.992-19.562,25.129-30.912,36.194
		C536.216,581.832,516.081,552.274,489.879,526.644L489.879,526.644L489.879,526.644z M596.185,560.057
		c-10.78-13.351-23.345-26.703-37.695-40.124l60.685-8.854C613.178,528.285,605.467,544.708,596.185,560.057L596.185,560.057
		L596.185,560.057z"/>
</g>
</svg>
